<?xml version="1.0" encoding="UTF-8" standalone="no"?>
<svg
   xmlns:dc="http://purl.org/dc/elements/1.1/"
   xmlns:cc="http://creativecommons.org/ns#"
   xmlns:rdf="http://www.w3.org/1999/02/22-rdf-syntax-ns#"
   xmlns:svg="http://www.w3.org/2000/svg"
   xmlns="http://www.w3.org/2000/svg"
   xmlns:sodipodi="http://sodipodi.sourceforge.net/DTD/sodipodi-0.dtd"
   xmlns:inkscape="http://www.inkscape.org/namespaces/inkscape"
   height="100"
   width="100"
   version="1.1"
   id="svg22"
   sodipodi:docname="stochsim.svg"
   inkscape:version="0.92.2 (5c3e80d, 2017-08-06)"
   inkscape:export-filename="C:\Users\magnu\Documents\git\stochsd\icons\stochsim.png"
   inkscape:export-xdpi="122.88"
   inkscape:export-ydpi="122.88"
   shape-rendering="crispEdges">
  <metadata
     id="metadata28">
    <rdf:RDF>
      <cc:Work
         rdf:about="">
        <dc:format>image/svg+xml</dc:format>
        <dc:type
           rdf:resource="http://purl.org/dc/dcmitype/StillImage" />
        <dc:title />
      </cc:Work>
    </rdf:RDF>
  </metadata>
  <defs
     id="defs26" />
  <sodipodi:namedview
     pagecolor="#ffffff"
     bordercolor="#666666"
     borderopacity="1"
     objecttolerance="10"
     gridtolerance="10"
     guidetolerance="10"
     inkscape:pageopacity="0"
     inkscape:pageshadow="2"
     inkscape:window-width="1920"
     inkscape:window-height="1017"
     id="namedview24"
     showgrid="false"
     inkscape:zoom="4"
     inkscape:cx="89.694312"
     inkscape:cy="34.38938"
     inkscape:window-x="-8"
     inkscape:window-y="-8"
     inkscape:window-maximized="1"
     inkscape:current-layer="svg22"
     inkscape:snap-nodes="true"
     showguides="false"
     inkscape:guide-bbox="true">
    <sodipodi:guide
       position="399.95726,119.04805"
       orientation="1,0"
       id="guide1065"
       inkscape:locked="false" />
    <sodipodi:guide
       position="499.94658,102.75145"
       orientation="1,0"
       id="guide1067"
       inkscape:locked="false" />
    <sodipodi:guide
       position="449.99999,93.749998"
       orientation="1,0"
       id="guide1069"
       inkscape:locked="false" />
  </sodipodi:namedview>
  <rect
     ry="22.480621"
     y="-5e-007"
     x="5e-007"
     height="100"
     width="100"
     id="rect965"
     style="fill:#0000ff;fill-opacity:1;stroke:#000000;stroke-width:0;stroke-miterlimit:4;stroke-dasharray:none;stroke-opacity:1" />
  <rect
     style="fill:#ffd94b;fill-opacity:1;stroke:#000000;stroke-width:0;stroke-miterlimit:4;stroke-dasharray:none"
     id="rect967"
     height="23.940765"
     width="31.447882"
     y="57.434914"
     x="34.208588"
     class="element" />
  <g
     style="fill:#ffd94b;fill-opacity:1;stroke-width:0;stroke-miterlimit:4;stroke-dasharray:none"
     transform="matrix(0,0.65770024,-0.61960181,0,96.97397,69.11017)"
     id="g987">
    <path
       d="M -0.29696306,0 10.563553,10 H 2.0302904 V 50.475434 H -2.6242165 V 10 h -8.5332625 z"
       id="path985"
       inkscape:connector-curvature="0"
       style="fill:#ffd94b;fill-opacity:1;stroke:#000000;stroke-width:0;stroke-miterlimit:4;stroke-dasharray:none"
       sodipodi:nodetypes="cccccccc" />
  </g>
  <circle
     style="opacity:1;fill:#ffd94b;fill-opacity:1;stroke:#000000;stroke-width:0;stroke-linejoin:miter;stroke-miterlimit:4;stroke-dasharray:none;stroke-dashoffset:0;stroke-opacity:1"
     id="path1075"
     cx="78.365051"
     cy="78.594139"
     r="9.5128822" />
  <path
     class="element"
     d="m 78.382257,68.904034 -6.19602,-6.577003 h 12.39204 z"
     id="path993"
     inkscape:connector-curvature="0"
     style="fill:#ffd94b;fill-opacity:1;stroke:#000000;stroke-width:0;stroke-miterlimit:4;stroke-dasharray:none" />
  <path
     inkscape:connector-curvature="0"
     id="path997"
     d="m 51.994957,6.8681559 v 0.00289 c -0.25315,0.018346 -0.50465,0.066693 -0.74651,0.1493012 l -17.05143,5.6678399 c -1.56999,0.522782 -2.48814,2.297929 -2.08459,4.033972 l 1.98882,19.510682 c 0.092,0.887524 0.50495,1.696083 1.14652,2.2508 l 12.6118,10.935672 c 0.0546,0.05141 0.11164,0.099 0.16903,0.146486 0.0801,0.06838 0.16264,0.134958 0.24789,0.194375 0.0856,0.05988 0.17406,0.115732 0.26479,0.166204 0.0861,0.04841 0.17491,0.09034 0.26481,0.129577 l 0.0621,0.02817 c 0.0632,0.02684 0.12953,0.0465 0.19438,0.0676 0.0584,0.01834 0.11509,0.03696 0.17465,0.05353 l 0.0422,0.0084 h 0.0169 c 0.0688,0.01834 0.13832,0.03152 0.20845,0.04508 l 0.20003,0.02817 h 0.0479 c 0.0611,0.0045 0.12158,0.0084 0.1831,0.0084 0.0856,-0.002 0.17108,-0.0079 0.25635,-0.01691 0.10212,-0.0094 0.20663,-0.02328 0.30706,-0.04507 0.10255,-0.02296 0.20401,-0.04724 0.30423,-0.07888 0.28885,-0.08949 0.5639,-0.226161 0.81694,-0.402834 l 15.85701,-9.701755 c 0.90929,-0.557679 1.49836,-1.579721 1.56346,-2.715609 l 1.16342,-20.890961 c 0.0468,-0.868986 -0.21832,-1.72287 -0.73806,-2.383198 -0.0211,-0.02685 -0.0431,-0.05297 -0.0648,-0.07888 -0.11812,-0.139499 -0.24526,-0.267291 -0.38312,-0.383114 -0.0247,-0.02295 -0.0491,-0.04087 -0.0733,-0.06198 l -0.0479,-0.03662 c -0.0674,-0.05554 -0.13701,-0.108186 -0.20846,-0.157754 -0.0601,-0.03577 -0.12087,-0.07166 -0.18311,-0.104235 -0.0287,-0.0137 -0.0606,-0.03154 -0.0902,-0.04508 -0.0632,-0.03578 -0.12635,-0.06619 -0.19155,-0.09578 l -0.0254,-0.0084 c -0.0422,-0.0137 -0.0841,-0.03153 -0.12678,-0.04507 L 53.206177,7.0682782 c -0.38691,-0.1546407 -0.79971,-0.2222651 -1.21131,-0.2000073 z"
     style="fill:#ffcd12;fill-opacity:1;stroke:#000000;stroke-width:0;stroke-linecap:butt;stroke-linejoin:miter;stroke-miterlimit:4;stroke-dasharray:none;stroke-opacity:1" />
  <path
     sodipodi:nodetypes="ccccccccc"
     inkscape:connector-curvature="0"
     id="path999"
     d="m 53.703167,7.9983607 c -0.91031,-0.4938584 -1.85217,-0.3885162 -2.79499,-0.2649805 l -15.18111,4.9658828 c -1.03446,0.368498 -1.18469,0.983169 -0.5282,1.443722 l 11.8843,6.602393 c 1.30147,0.744357 2.79363,1.052841 4.78894,0.211276 l 14.71893,-6.12702 c 0.9643,-0.313019 1.28507,-1.236484 0.70426,-1.584574 z"
     style="fill:#ffffff;fill-opacity:0.56060606;stroke:#000000;stroke-width:0;stroke-linecap:butt;stroke-linejoin:miter;stroke-miterlimit:4;stroke-dasharray:none;stroke-opacity:1" />
  <path
     sodipodi:nodetypes="ccccccccc"
     inkscape:connector-curvature="0"
     id="path1001"
     d="m 34.653077,15.111337 c -1.1342,-0.595193 -1.90619,0.29063 -1.83107,1.126808 l 1.97192,18.909248 c 0.0917,1.100654 0.44881,2.021166 1.19723,2.67617 l 10.28213,9.155316 c 1.18583,1.161333 2.45224,1.816803 2.39446,-0.281703 l -0.35213,-21.47978 c 0.0467,-1.427595 -0.20151,-2.721153 -1.69021,-3.45085 z"
     style="fill:#000000;fill-opacity:0.09090911;stroke:#000000;stroke-width:0;stroke-linecap:butt;stroke-linejoin:miter;stroke-miterlimit:4;stroke-dasharray:none;stroke-opacity:1" />
  <path
     inkscape:connector-curvature="0"
     id="path1003"
     d="m 51.366457,13.56338 c -0.38836,-0.0146 -0.79919,0.0034 -1.21132,0.05916 -1.64851,0.222665 -2.70895,0.957052 -2.36349,1.642322 0.34504,0.684216 1.96569,1.05944 3.61424,0.836656 1.64856,-0.222669 2.70012,-0.957971 2.35504,-1.642323 -0.2591,-0.514176 -1.22942,-0.852028 -2.39447,-0.895813 z m 13.41465,8.296125 c -0.13182,-0.01751 -0.26799,-0.01444 -0.40565,0.0056 -0.82626,0.126159 -1.73735,0.959507 -2.2846,2.200091 -0.72968,1.654152 -0.53769,3.398594 0.42537,3.904392 0.96179,0.50509 2.32958,-0.42488 3.05927,-2.078962 0.72968,-1.654155 0.54486,-3.407746 -0.4169,-3.91284 -0.12038,-0.06365 -0.24568,-0.100801 -0.37749,-0.118315 z m -28.18428,0.650731 c -0.20033,-0.0137 -0.38735,0.05021 -0.5465,0.191558 -0.63622,0.564957 -0.59924,2.231395 0.0817,3.721285 0.68068,1.489784 1.74431,2.241084 2.38038,1.676126 0.63702,-0.565679 0.59922,-2.239773 -0.0817,-3.729734 -0.51051,-1.117446 -1.23294,-1.819081 -1.83387,-1.859235 z m 24.17284,6.555208 c -0.13908,-0.01168 -0.29052,0.0054 -0.42818,0.02536 -0.82626,0.126174 -1.73733,0.959509 -2.28461,2.200094 -0.7297,1.654081 -0.53771,3.407054 0.42537,3.912841 0.96178,0.505108 2.33242,-0.433295 3.06211,-2.087412 0.72968,-1.65412 0.48575,-2.954098 -0.41692,-3.901573 -0.0914,-0.09591 -0.21868,-0.137625 -0.35777,-0.149303 z m -17.60074,5.490371 c -0.21755,-0.01468 -0.41872,0.05346 -0.59157,0.202827 -0.69062,0.595948 -0.65171,2.349602 0.0873,3.921292 0.73926,1.571801 1.89808,2.359398 2.58883,1.763455 0.69178,-0.596688 0.65748,-2.349693 -0.0816,-3.921292 -0.55446,-1.178708 -1.35029,-1.921541 -2.0029,-1.966282 z m 12.60053,2.495881 c -0.82631,0.12613 -1.72883,0.959462 -2.27615,2.200093 -0.72967,1.654082 -0.54616,3.407038 0.41692,3.912842 0.96179,0.505085 2.33803,-0.424855 3.06774,-2.078961 0.72966,-1.65413 0.53637,-3.404959 -0.42538,-3.910025 -0.24076,-0.12714 -0.50785,-0.164103 -0.78313,-0.123953 z"
     style="fill:#000000;stroke:#000000;stroke-width:0;stroke-linecap:butt;stroke-linejoin:miter;stroke-miterlimit:4;stroke-dasharray:none;stroke-opacity:1" />
  <g
     id="g1082"
     transform="matrix(0,0.65770024,-0.61960181,0,33.595067,69.11017)"
     style="fill:#ffd94b;fill-opacity:1;stroke-width:0;stroke-miterlimit:4;stroke-dasharray:none">
    <path
       sodipodi:nodetypes="cccccccc"
       style="fill:#ffd94b;fill-opacity:1;stroke:#000000;stroke-width:0;stroke-miterlimit:4;stroke-dasharray:none"
       inkscape:connector-curvature="0"
       id="path1080"
       d="M -0.29696306,0 10.563553,10 H 2.0302904 V 50.475434 H -2.6242165 V 10 h -8.5332625 z" />
  </g>
  <circle
     r="9.5128822"
     cy="78.594139"
     cx="14.986146"
     id="circle1084"
     style="opacity:1;fill:#ffd94b;fill-opacity:1;stroke:#000000;stroke-width:0;stroke-linejoin:miter;stroke-miterlimit:4;stroke-dasharray:none;stroke-dashoffset:0;stroke-opacity:1" />
  <path
     style="fill:#ffd94b;fill-opacity:1;stroke:#000000;stroke-width:0;stroke-miterlimit:4;stroke-dasharray:none"
     inkscape:connector-curvature="0"
     id="path1086"
     d="M 15.003357,68.904034 8.8073367,62.327031 H 21.199377 Z"
     class="element" />
</svg>
