<?xml version="1.0" encoding="UTF-8" standalone="no"?>
<!-- Created with Inkscape (http://www.inkscape.org/) -->

<svg
   xmlns:dc="http://purl.org/dc/elements/1.1/"
   xmlns:cc="http://creativecommons.org/ns#"
   xmlns:rdf="http://www.w3.org/1999/02/22-rdf-syntax-ns#"
   xmlns:svg="http://www.w3.org/2000/svg"
   xmlns="http://www.w3.org/2000/svg"
   xmlns:xlink="http://www.w3.org/1999/xlink"
   xmlns:sodipodi="http://sodipodi.sourceforge.net/DTD/sodipodi-0.dtd"
   xmlns:inkscape="http://www.inkscape.org/namespaces/inkscape"
   id="svg11302"
   viewBox="0 0 14.197526 16.439407"
   version="1.0"
   inkscape:version="0.92.4 (5da689c313, 2019-01-14)"
   sodipodi:docname="dice_v3.svg"
   width="14.197526"
   height="16.439407">
  <sodipodi:namedview
     pagecolor="#ffffff"
     bordercolor="#666666"
     borderopacity="1"
     objecttolerance="10"
     gridtolerance="10"
     guidetolerance="10"
     inkscape:pageopacity="0"
     inkscape:pageshadow="2"
     inkscape:window-width="1920"
     inkscape:window-height="1017"
     id="namedview3353"
     showgrid="false"
     inkscape:zoom="8"
     inkscape:cx="46.257142"
     inkscape:cy="7.0754371"
     inkscape:window-x="-8"
     inkscape:window-y="-8"
     inkscape:window-maximized="1"
     inkscape:current-layer="svg11302"
     fit-margin-top="0"
     fit-margin-left="0"
     fit-margin-right="0"
     fit-margin-bottom="0"
     inkscape:snap-nodes="true" />
  <defs
     id="defs11304">
    <filter
       id="filter11999"
       y="-0.17114"
       width="1.3796"
       x="-0.18982001"
       height="1.3423001">
      <feGaussianBlur
         id="feGaussianBlur12001"
         stdDeviation="9.8117979"
         inkscape:collect="always" />
    </filter>
  </defs>
  <metadata
     id="metadata3351">
    <rdf:RDF>
      <cc:Work>
        <dc:format>image/svg+xml</dc:format>
        <dc:type
           rdf:resource="http://purl.org/dc/dcmitype/StillImage" />
        <cc:license
           rdf:resource="http://creativecommons.org/publicdomain/zero/1.0/" />
        <dc:publisher>
          <cc:Agent
             rdf:about="http://openclipart.org/">
            <dc:title>Openclipart</dc:title>
          </cc:Agent>
        </dc:publisher>
        <dc:title />
        <dc:date>2008-10-25T16:48:57</dc:date>
        <dc:description>Made for a pacman game</dc:description>
        <dc:source>https://openclipart.org/detail/19717/ghost-by-mbtwms</dc:source>
        <dc:creator>
          <cc:Agent>
            <dc:title>mbtwms</dc:title>
          </cc:Agent>
        </dc:creator>
        <dc:subject>
          <rdf:Bag>
            <rdf:li>computer game</rdf:li>
            <rdf:li>ghost</rdf:li>
            <rdf:li>how i did it</rdf:li>
            <rdf:li>pacman</rdf:li>
          </rdf:Bag>
        </dc:subject>
      </cc:Work>
      <cc:License
         rdf:about="http://creativecommons.org/publicdomain/zero/1.0/">
        <cc:permits
           rdf:resource="http://creativecommons.org/ns#Reproduction" />
        <cc:permits
           rdf:resource="http://creativecommons.org/ns#Distribution" />
        <cc:permits
           rdf:resource="http://creativecommons.org/ns#DerivativeWorks" />
      </cc:License>
    </rdf:RDF>
  </metadata>
  <path
     style="fill:#000000;fill-opacity:1;fill-rule:nonzero;stroke:#000000;stroke-width:0;stroke-linecap:round;stroke-miterlimit:4;stroke-dasharray:none;stroke-opacity:1"
     d="m 23.857422,-9.4902343 -8.227367,4.7499999 v 9.5 l 8.227367,4.7499999 8.227366,-4.7499999 v -9.5 z m 0,0.7312729 7.596507,4.3832721 V 4.3952206 L 23.857422,8.7784927 16.260915,4.3952206 v -8.7709099 z m -0.06112,3.4424402 c -0.492058,-1.372e-4 -0.890776,0.2528978 -0.890625,0.5653724 -1.51e-4,0.3124745 0.398567,0.5655098 0.890625,0.5653722 0.492056,1.378e-4 0.892959,-0.2528975 0.892807,-0.5653722 1.52e-4,-0.3124748 -0.400751,-0.56551 -0.892807,-0.5653724 z m 6.271484,3.3507584 c -0.243622,0.015918 -0.525012,0.2195257 -0.709444,0.5391773 -0.246148,0.4260661 -0.227028,0.89605273 0.04366,1.05215994 0.270536,0.15636726 0.690556,-0.0605841 0.936466,-0.48678766 0.246148,-0.42606448 0.227029,-0.90041958 -0.04366,-1.05652578 -0.06763,-0.039092 -0.145815,-0.05333 -0.227022,-0.048024 z m -12.414178,0.034926 c -0.08121,-0.0053 -0.159388,0.011115 -0.227022,0.050207 -0.270687,0.1561061 -0.289805,0.6282782 -0.04366,1.05434275 0.24591,0.42620296 0.665931,0.6453379 0.936467,0.48897058 0.270685,-0.15610724 0.289805,-0.62827677 0.04366,-1.05434273 C 18.17862,-1.7113109 17.897229,-1.914918 17.653607,-1.9308368 Z M 19.5571,1.4221044 c -0.08121,-0.0053 -0.159388,0.011115 -0.227022,0.050207 -0.270687,0.1561061 -0.289806,0.6282782 -0.04366,1.0543429 0.24591,0.4262029 0.66593,0.6453377 0.936466,0.4889706 C 20.493572,2.8595176 20.512692,2.3873481 20.266544,1.961282 20.082113,1.6416305 19.800722,1.4380235 19.5571,1.4221044 Z m 1.903493,3.265625 c -0.08121,-0.0053 -0.159388,0.011115 -0.227022,0.050207 -0.270687,0.1561061 -0.289806,0.6282781 -0.04366,1.0543428 0.24591,0.4262029 0.66593,0.6453378 0.936466,0.4889706 0.270686,-0.1561073 0.289806,-0.6282769 0.04366,-1.054343 C 21.985605,4.9072555 21.704214,4.7036485 21.460593,4.6877294 Z m 4.769646,0 c -0.243622,0.015919 -0.525013,0.2195261 -0.709444,0.5391777 -0.246148,0.4260661 -0.224845,0.8982356 0.04584,1.0543429 0.270536,0.1563672 0.688373,-0.062767 0.934283,-0.4889706 0.246148,-0.4260646 0.227029,-0.8982367 -0.04366,-1.0543428 -0.06763,-0.039092 -0.145815,-0.055513 -0.227022,-0.050207 z"
     id="path940"
     inkscape:connector-curvature="0" />
  <path
     style="fill:#000000;fill-opacity:1;fill-rule:nonzero;stroke:#000000;stroke-width:0;stroke-linecap:round;stroke-miterlimit:4;stroke-dasharray:none;stroke-opacity:1"
     d="m 41.922693,-9.4902343 -8.227367,4.7499999 v 9.5 l 8.227367,4.7499999 8.227366,-4.7499999 v -9.5 z"
     id="path816"
     inkscape:connector-curvature="0"
     sodipodi:nodetypes="ccccccc" />
  <path
     sodipodi:nodetypes="ccccccc"
     inkscape:connector-curvature="0"
     id="path818"
     d="m 41.922693,-19.264821 -8.227367,4.75 v 9.4999992 l 8.227367,4.74999991 8.227366,-4.74999991 v -9.4999992 z"
     style="fill:#000000;fill-opacity:1;fill-rule:nonzero;stroke:#000000;stroke-width:0;stroke-linecap:round;stroke-miterlimit:4;stroke-dasharray:none;stroke-opacity:1" />
  <path
     style="fill:#000000;fill-opacity:0.48989898;fill-rule:nonzero;stroke:#000000;stroke-width:0;stroke-linecap:round;stroke-miterlimit:4;stroke-dasharray:none;stroke-opacity:1"
     d="m 86.142401,-9.0482926 -7.997724,4.6174174 v 9.234835 l 7.997724,4.6174174 7.997723,-4.6174174 v -9.234835 z"
     id="path836"
     inkscape:connector-curvature="0"
     sodipodi:nodetypes="ccccccc" />
  <path
     inkscape:connector-curvature="0"
     id="path838"
     d="m 86.142435,-8.1154785 -6.686192,3.8585739 6.686192,3.86024222 6.684525,-3.86024222 z"
     style="fill:#ff0000;fill-opacity:0.18181817;fill-rule:nonzero;stroke:#000000;stroke-width:0;stroke-linecap:round;stroke-miterlimit:4;stroke-dasharray:none;stroke-opacity:1" />
  <path
     id="path878"
     d="m 105.04533,-5.3164062 c -0.49206,-1.373e-4 -0.89078,0.2519785 -0.89063,0.5644531 -1.5e-4,0.3124745 0.39857,0.5665438 0.89063,0.5664062 0.49205,1.378e-4 0.89273,-0.2539315 0.89258,-0.5664062 1.5e-4,-0.3124748 -0.40053,-0.5645908 -0.89258,-0.5644531 z m 6.27148,3.3515624 c -0.24362,0.015918 -0.52455,0.2194109 -0.70898,0.5390626 -0.24615,0.4260658 -0.22772,0.89467399 0.043,1.0507812 0.27053,0.15636726 0.69159,-0.0601246 0.9375,-0.48632812 0.24614,-0.42606448 0.22576,-0.90053438 -0.0449,-1.05664068 -0.0676,-0.039092 -0.14535,-0.052181 -0.22656,-0.046875 z m -12.41406,0.033203 c -0.08121,-0.0053 -0.158929,0.011689 -0.226563,0.050781 -0.270687,0.1561061 -0.291068,0.628623 -0.04492,1.05468752 0.24591,0.42620298 0.666964,0.64464856 0.9375,0.48828126 0.270686,-0.1561073 0.289115,-0.62862165 0.04297,-1.05468748 -0.184435,-0.3196515 -0.465365,-0.5231435 -0.708987,-0.5390623 z m 1.9043,3.3535156 c -0.0812,-0.0053 -0.16089,0.01169 -0.22852,0.050781 -0.27069,0.1561061 -0.28911,0.6286229 -0.043,1.0546876 0.24591,0.4262025 0.66697,0.6446483 0.9375,0.4882812 0.27069,-0.1561073 0.28912,-0.6286214 0.043,-1.0546875 C 101.3316,1.641286 101.05067,1.4377941 100.80705,1.421875 Z m 1.90234,3.265625 c -0.0812,-0.0053 -0.15893,0.011689 -0.22656,0.050781 -0.27069,0.1561061 -0.28912,0.6286228 -0.043,1.0546876 0.24591,0.4262028 0.66501,0.6446484 0.93555,0.4882812 0.27068,-0.1561073 0.28911,-0.6286214 0.043,-1.0546875 -0.18447,-0.3196511 -0.4654,-0.5231432 -0.70902,-0.5390623 z m 4.76953,0 c -0.24362,0.015919 -0.52455,0.2194109 -0.70898,0.5390625 -0.24615,0.4260661 -0.22381,0.8985802 0.0469,1.0546875 0.27054,0.1563672 0.68769,-0.062078 0.9336,-0.4882812 0.24614,-0.4260647 0.22772,-0.8985815 -0.043,-1.0546876 -0.0676,-0.039092 -0.14731,-0.056087 -0.22852,-0.050781 z"
     style="fill:#000000;fill-opacity:1;fill-rule:nonzero;stroke:#000000;stroke-width:0;stroke-linecap:round;stroke-miterlimit:4;stroke-dasharray:none;stroke-opacity:1"
     inkscape:connector-curvature="0" />
  <use
     x="0"
     y="0"
     xlink:href="#path838"
     id="use881"
     transform="rotate(120,86.151456,0.16770953)"
     width="100%"
     height="100%" />
  <use
     height="100%"
     width="100%"
     transform="matrix(0.5,0.8660254,0.8660254,-0.5,42.901482,-74.391324)"
     id="use883"
     xlink:href="#path838"
     y="0"
     x="0" />
  <path
     style="fill:#000000;fill-opacity:1;fill-rule:nonzero;stroke:#000000;stroke-width:0;stroke-linecap:round;stroke-miterlimit:4;stroke-dasharray:none;stroke-opacity:1"
     d="m 0.0060441,-10.798828 -9.5135909,5.4920949 V 5.67978 L 0.0060441,11.171875 9.517312,5.67978 V -5.3067331 Z m 0,1.1104997 7.9500633,4.5883619 -7.9500633,4.5930083 -7.9547094,-4.5930083 z m -0.09989807,2.9086729 a 1.743681,1.0776542 0 0 0 -1.74473923,1.0779747 1.743681,1.0776542 0 0 0 1.74473923,1.0756514 1.743681,1.0776542 0 0 0 1.74241627,-1.0756514 1.743681,1.0776542 0 0 0 -1.74241627,-1.0779747 z m -8.54713093,2.825037 7.95238631,4.59300836 V 9.8197601 L -8.6386618,5.229075 Z m 17.3103207,0 -0.00232,9.1836934 -7.95006205,4.5906851 V 0.63838996 Z m -1.16161,0.8828241 a 1.0776542,1.743681 30 0 0 -1.3753469,1.0640353 1.0776542,1.743681 30 0 0 0.062727,2.0490811 1.0776542,1.743681 30 0 0 1.8051427,-0.97110645 1.0776542,1.743681 30 0 0 -0.062727,-2.04908115 1.0776542,1.743681 30 0 0 -0.313635,-0.092929 1.0776542,1.743681 30 0 0 -0.1161608,2e-7 z m -15.2287145,0.1556558 a 1.743681,1.0776542 60 0 0 -0.3159581,0.092929 1.743681,1.0776542 60 0 0 -0.060405,2.04908107 1.743681,1.0776542 60 0 0 1.8051439,0.97110646 1.743681,1.0776542 60 0 0 0.060403,-2.04908113 1.743681,1.0776542 60 0 0 -1.4891838,-1.0640354 z M -5.434939,0.97525704 A 1.743681,1.0776542 60 0 0 -5.7508971,1.0658627 1.743681,1.0776542 60 0 0 -5.8113018,3.1149438 1.743681,1.0776542 60 0 0 -4.006159,4.0860503 1.743681,1.0776542 60 0 0 -3.9457544,2.0369691 1.743681,1.0776542 60 0 0 -5.434939,0.97525704 Z M 2.9844146,4.8945311 A 1.0776542,1.743681 30 0 0 1.6113907,5.9562433 1.0776542,1.743681 30 0 0 1.6741173,8.0053244 1.0776542,1.743681 30 0 0 3.47926,7.034218 1.0776542,1.743681 30 0 0 3.4165335,4.9851368 1.0776542,1.743681 30 0 0 2.9844146,4.8945311 Z m -6.1588601,0.023232 a 1.743681,1.0776542 60 0 0 -0.3159581,0.090606 1.743681,1.0776542 60 0 0 -0.060404,2.0490811 1.743681,1.0776542 60 0 0 1.8051427,0.9711065 1.743681,1.0776542 60 0 0 0.060403,-2.0490812 1.743681,1.0776542 60 0 0 -1.4891846,-1.0617121 z"
     id="path901"
     inkscape:connector-curvature="0" />
  <ellipse
     ry="0.90598059"
     rx="1.4659073"
     cy="-4.7646432"
     cx="139.93193"
     id="ellipse930"
     style="fill:#ff0000;fill-opacity:0.39393945;fill-rule:nonzero;stroke:#000000;stroke-width:0;stroke-linecap:round;stroke-miterlimit:4;stroke-dasharray:none;stroke-opacity:0.36363639" />
  <ellipse
     transform="rotate(-120)"
     style="fill:#ff0000;fill-opacity:0.39393945;fill-rule:nonzero;stroke:#000000;stroke-width:0;stroke-linecap:round;stroke-miterlimit:4;stroke-dasharray:none;stroke-opacity:0.36363639"
     id="ellipse932"
     cx="-66.063423"
     cy="116.57407"
     rx="1.4659073"
     ry="0.90598059" />
  <ellipse
     ry="0.90598059"
     rx="1.4659073"
     cy="116.60377"
     cx="-69.856865"
     id="ellipse934"
     style="fill:#ff0000;fill-opacity:0.39393945;fill-rule:nonzero;stroke:#000000;stroke-width:0;stroke-linecap:round;stroke-miterlimit:4;stroke-dasharray:none;stroke-opacity:0.36363639"
     transform="rotate(-120)" />
  <ellipse
     transform="rotate(-120)"
     style="fill:#ff0000;fill-opacity:0.39393945;fill-rule:nonzero;stroke:#000000;stroke-width:0;stroke-linecap:round;stroke-miterlimit:4;stroke-dasharray:none;stroke-opacity:0.36363639"
     id="ellipse936"
     cx="-73.677536"
     cy="116.59224"
     rx="1.4659073"
     ry="0.90598059" />
  <ellipse
     ry="0.90598059"
     rx="1.4659073"
     cy="-125.85144"
     cx="66.320702"
     id="ellipse938"
     style="fill:#ff0000;fill-opacity:0.39393945;fill-rule:nonzero;stroke:#000000;stroke-width:0;stroke-linecap:round;stroke-miterlimit:4;stroke-dasharray:none;stroke-opacity:0.36363639"
     transform="matrix(0.5,-0.8660254,-0.8660254,-0.5,0,0)" />
  <ellipse
     transform="matrix(0.5,-0.8660254,-0.8660254,-0.5,0,0)"
     style="fill:#ff0000;fill-opacity:0.39393945;fill-rule:nonzero;stroke:#000000;stroke-width:0;stroke-linecap:round;stroke-miterlimit:4;stroke-dasharray:none;stroke-opacity:0.36363639"
     id="ellipse940"
     cx="74.019455"
     cy="-125.79524"
     rx="1.4659073"
     ry="0.90598059" />
  <path
     inkscape:connector-curvature="0"
     id="path944"
     d="m 64.880859,-9.0488281 -7.998047,4.6171875 v 9.2363281 l 7.998047,4.6171875 7.996094,-4.6171875 v -9.2363281 z m 0,0.9335937 6.683594,3.8574219 -6.683594,3.86132812 -6.6875,-3.86132812 z m -0.08398,2.4453125 a 1.4659073,0.90598059 0 0 0 -1.466797,0.90625 1.4659073,0.90598059 0 0 0 1.466797,0.9042969 1.4659073,0.90598059 0 0 0 1.464844,-0.9042969 1.4659073,0.90598059 0 0 0 -1.464844,-0.90625 z m -7.185547,2.375 6.685547,3.86132815 V 8.2851562 l -6.683594,-3.859375 z m 14.552734,0 -0.002,7.7207031 -6.683593,3.859375 V 0.56640625 Z M 71.1875,-2.5527344 a 0.90598059,1.4659073 30 0 0 -1.15625,0.8945313 0.90598059,1.4659073 30 0 0 0.05273,1.72265622 0.90598059,1.4659073 30 0 0 1.517578,-0.81640624 0.90598059,1.4659073 30 0 0 -0.05273,-1.72265628 0.90598059,1.4659073 30 0 0 -0.263672,-0.078125 0.90598059,1.4659073 30 0 0 -0.09766,0 z M 58.384766,-2.421875 a 1.4659073,0.90598059 60 0 0 -0.265625,0.078125 1.4659073,0.90598059 60 0 0 -0.05078,1.72265625 1.4659073,0.90598059 60 0 0 1.517579,0.81640625 1.4659073,0.90598059 60 0 0 0.05078,-1.7226563 1.4659073,0.90598059 60 0 0 -1.251953,-0.8945312 z m 1.921875,3.27148438 a 1.4659073,0.90598059 60 0 0 -0.265625,0.0761719 1.4659073,0.90598059 60 0 0 -0.05078,1.72265622 1.4659073,0.90598059 60 0 0 1.517578,0.8164063 1.4659073,0.90598059 60 0 0 0.05078,-1.7226563 1.4659073,0.90598059 60 0 0 -1.251953,-0.89257812 z m 7.078125,3.29492182 a 0.90598059,1.4659073 30 0 0 -1.154297,0.8925782 0.90598059,1.4659073 30 0 0 0.05273,1.7226562 0.90598059,1.4659073 30 0 0 1.517578,-0.8164062 0.90598059,1.4659073 30 0 0 -0.05273,-1.7226563 0.90598059,1.4659073 30 0 0 -0.363281,-0.076172 z m -5.177735,0.019531 a 1.4659073,0.90598059 60 0 0 -0.265625,0.076172 1.4659073,0.90598059 60 0 0 -0.05078,1.7226562 1.4659073,0.90598059 60 0 0 1.517578,0.8164063 1.4659073,0.90598059 60 0 0 0.05078,-1.7226563 1.4659073,0.90598059 60 0 0 -1.251953,-0.8925782 z"
     style="fill:#000000;fill-opacity:1;fill-rule:nonzero;stroke:#000000;stroke-width:0;stroke-linecap:round;stroke-miterlimit:4;stroke-dasharray:none;stroke-opacity:1" />
</svg>
