<?xml version="1.0" encoding="UTF-8" standalone="no"?>
<!-- Created with Inkscape (http://www.inkscape.org/) -->

<svg
   xmlns:dc="http://purl.org/dc/elements/1.1/"
   xmlns:cc="http://creativecommons.org/ns#"
   xmlns:rdf="http://www.w3.org/1999/02/22-rdf-syntax-ns#"
   xmlns:svg="http://www.w3.org/2000/svg"
   xmlns="http://www.w3.org/2000/svg"
   xmlns:sodipodi="http://sodipodi.sourceforge.net/DTD/sodipodi-0.dtd"
   xmlns:inkscape="http://www.inkscape.org/namespaces/inkscape"
   id="svg11302"
   viewBox="0 0 14.197526 16.439407"
   version="1.0"
   inkscape:version="0.92.4 (5da689c313, 2019-01-14)"
   sodipodi:docname="dice.svg"
   width="14.197526"
   height="16.439407">
  <sodipodi:namedview
     pagecolor="#ffffff"
     bordercolor="#666666"
     borderopacity="1"
     objecttolerance="10"
     gridtolerance="10"
     guidetolerance="10"
     inkscape:pageopacity="0"
     inkscape:pageshadow="2"
     inkscape:window-width="1920"
     inkscape:window-height="1017"
     id="namedview3353"
     showgrid="false"
     inkscape:zoom="32"
     inkscape:cx="2.9304211"
     inkscape:cy="17.340715"
     inkscape:window-x="-8"
     inkscape:window-y="-8"
     inkscape:window-maximized="1"
     inkscape:current-layer="svg11302"
     fit-margin-top="0"
     fit-margin-left="0"
     fit-margin-right="0"
     fit-margin-bottom="0"
     inkscape:snap-nodes="true" />
  <defs
     id="defs11304">
    <inkscape:perspective
       sodipodi:type="inkscape:persp3d"
       inkscape:vp_x="3.5 : 12.094703 : 1"
       inkscape:vp_y="0 : 1000 : 0"
       inkscape:vp_z="37.697526 : 9.9697035 : 1"
       inkscape:persp3d-origin="7.098763 : 5.4798023 : 1"
       id="perspective830" />
    <filter
       id="filter11999"
       y="-0.17114"
       width="1.3796"
       x="-0.18982001"
       height="1.3423001">
      <feGaussianBlur
         id="feGaussianBlur12001"
         stdDeviation="9.8117979"
         inkscape:collect="always" />
    </filter>
  </defs>
  <metadata
     id="metadata3351">
    <rdf:RDF>
      <cc:Work>
        <dc:format>image/svg+xml</dc:format>
        <dc:type
           rdf:resource="http://purl.org/dc/dcmitype/StillImage" />
        <cc:license
           rdf:resource="http://creativecommons.org/publicdomain/zero/1.0/" />
        <dc:publisher>
          <cc:Agent
             rdf:about="http://openclipart.org/">
            <dc:title>Openclipart</dc:title>
          </cc:Agent>
        </dc:publisher>
        <dc:title />
        <dc:date>2008-10-25T16:48:57</dc:date>
        <dc:description>Made for a pacman game</dc:description>
        <dc:source>https://openclipart.org/detail/19717/ghost-by-mbtwms</dc:source>
        <dc:creator>
          <cc:Agent>
            <dc:title>mbtwms</dc:title>
          </cc:Agent>
        </dc:creator>
        <dc:subject>
          <rdf:Bag>
            <rdf:li>computer game</rdf:li>
            <rdf:li>ghost</rdf:li>
            <rdf:li>how i did it</rdf:li>
            <rdf:li>pacman</rdf:li>
          </rdf:Bag>
        </dc:subject>
      </cc:Work>
      <cc:License
         rdf:about="http://creativecommons.org/publicdomain/zero/1.0/">
        <cc:permits
           rdf:resource="http://creativecommons.org/ns#Reproduction" />
        <cc:permits
           rdf:resource="http://creativecommons.org/ns#Distribution" />
        <cc:permits
           rdf:resource="http://creativecommons.org/ns#DerivativeWorks" />
      </cc:License>
    </rdf:RDF>
  </metadata>
  <path
     style="fill:#000000;fill-opacity:0.94444442;fill-rule:nonzero;stroke:#000000;stroke-width:0;stroke-linecap:round;stroke-miterlimit:4;stroke-dasharray:none;stroke-opacity:1"
     d="M -6.6855469 -8.9746094 L -8.2285156 -7.4472656 L -8.2285156 8.2734375 L 7.4921875 8.2734375 L 9.4375 6.3261719 L 9.4375 -8.9746094 L -6.6855469 -8.9746094 z M -7.4746094 -6.6914062 L 6.7382812 -6.6914062 L 6.7382812 7.5195312 L -7.4746094 7.5195312 L -7.4746094 -6.6914062 z M -5.3125 -6.2792969 A 1.75 1.75 0 0 0 -7.0625 -4.5292969 A 1.75 1.75 0 0 0 -5.3125 -2.7792969 A 1.75 1.75 0 0 0 -3.5625 -4.5292969 A 1.75 1.75 0 0 0 -5.3125 -6.2792969 z M 4.5644531 -6.2792969 A 1.75 1.75 0 0 0 2.8144531 -4.5292969 A 1.75 1.75 0 0 0 4.5644531 -2.7792969 A 1.75 1.75 0 0 0 6.3144531 -4.5292969 A 1.75 1.75 0 0 0 4.5644531 -6.2792969 z M -5.3125 3.5566406 A 1.75 1.75 0 0 0 -7.0625 5.3066406 A 1.75 1.75 0 0 0 -5.3125 7.0566406 A 1.75 1.75 0 0 0 -3.5625 5.3066406 A 1.75 1.75 0 0 0 -5.3125 3.5566406 z M 4.5644531 3.5566406 A 1.75 1.75 0 0 0 2.8144531 5.3066406 A 1.75 1.75 0 0 0 4.5644531 7.0566406 A 1.75 1.75 0 0 0 6.3144531 5.3066406 A 1.75 1.75 0 0 0 4.5644531 3.5566406 z "
     id="rect854" />
  <path
     style="fill:none;stroke:#000000;stroke-width:0.01070692;stroke-linecap:butt;stroke-linejoin:miter;stroke-miterlimit:4;stroke-dasharray:none;stroke-opacity:1"
     d="M 5.5993916,-7.2440125 -8.6109996,6.9663787"
     id="path876"
     inkscape:connector-curvature="0"
     inkscape:transform-center-x="1.4820194"
     inkscape:transform-center-y="-0.15709712" />
  <path
     style="fill:none;stroke:#000000;stroke-width:0.01070692;stroke-linecap:butt;stroke-linejoin:miter;stroke-miterlimit:4;stroke-dasharray:none;stroke-opacity:1"
     d="M -7.4733896,-6.691937 6.7370016,7.5184541"
     id="path878"
     inkscape:connector-curvature="0"
     inkscape:transform-center-x="0.34440948"
     inkscape:transform-center-y="0.39497833" />
  <path
     inkscape:connector-curvature="0"
     id="path881"
     d="M 7.6571273,-5.9391069 -6.5532638,8.2712843"
     style="fill:none;stroke:#000000;stroke-width:0.01070692;stroke-linecap:butt;stroke-linejoin:miter;stroke-miterlimit:4;stroke-dasharray:none;stroke-opacity:1"
     inkscape:transform-center-x="-0.57571627"
     inkscape:transform-center-y="1.1478084" />
  <path
     inkscape:connector-curvature="0"
     id="path883"
     d="M 6.7374199,-6.6910246 -7.4729712,7.5193666"
     style="fill:none;stroke:#000000;stroke-width:0.01070692;stroke-linecap:butt;stroke-linejoin:miter;stroke-miterlimit:4;stroke-dasharray:none;stroke-opacity:1"
     inkscape:transform-center-x="0.34399113"
     inkscape:transform-center-y="0.39589078" />
  <path
     id="path895"
     d="m 40.182757,-7.5996094 -0.847656,0.6445313 V 7.7285156 H 54.018695 L 54.866351,7.0839844 V -7.5996094 Z m -0.142578,1.3515625 H 53.313617 V 7.0234375 H 40.040179 Z m 6.628906,4.8945313 a 1.7364054,1.7364054 0 0 0 -1.738281,1.7363281 1.7364054,1.7364054 0 0 0 1.738281,1.7363281 1.7364054,1.7364054 0 0 0 1.736328,-1.7363281 1.7364054,1.7364054 0 0 0 -1.736328,-1.7363281 z"
     style="fill:#000000;fill-opacity:0.94444442;fill-rule:nonzero;stroke:#000000;stroke-width:0;stroke-linecap:round;stroke-miterlimit:4;stroke-dasharray:none;stroke-opacity:1"
     inkscape:connector-curvature="0" />
  <path
     inkscape:connector-curvature="0"
     id="path897"
     d="M 52.250726,-6.7645241 38.978567,6.5076348"
     style="fill:none;stroke:#000000;stroke-width:0.01;stroke-linecap:butt;stroke-linejoin:miter;stroke-miterlimit:4;stroke-dasharray:none;stroke-opacity:1" />
  <path
     inkscape:connector-curvature="0"
     id="path899"
     d="M 40.041067,-6.2488991 53.313226,7.0232598"
     style="fill:none;stroke:#000000;stroke-width:0.01;stroke-linecap:butt;stroke-linejoin:miter;stroke-miterlimit:4;stroke-dasharray:none;stroke-opacity:1" />
  <path
     style="fill:none;stroke:#000000;stroke-width:0.01;stroke-linecap:butt;stroke-linejoin:miter;stroke-miterlimit:4;stroke-dasharray:none;stroke-opacity:1"
     d="M 54.172601,-5.5457741 40.900442,7.7263848"
     id="path901"
     inkscape:connector-curvature="0" />
  <path
     style="fill:none;stroke:#000000;stroke-width:0.01;stroke-linecap:butt;stroke-linejoin:miter;stroke-miterlimit:4;stroke-dasharray:none;stroke-opacity:1"
     d="M 53.313617,-6.2480469 40.041458,7.024112"
     id="path903"
     inkscape:connector-curvature="0" />
</svg>
